<?xml version="1.0" encoding="UTF-8"?>
<svg xmlns="http://www.w3.org/2000/svg" xmlns:xlink="http://www.w3.org/1999/xlink" viewBox="0 0 64 64" width="64px" height="64px">
<defs>
<linearGradient id="linear0" gradientUnits="userSpaceOnUse" x1="86" y1="16.125" x2="86" y2="155.875" >
<stop offset="0" style="stop-color:rgb(85.09804%,87.843138%,12.941177%);stop-opacity:1;"/>
<stop offset="1" style="stop-color:rgb(98.431373%,52.941179%,16.862746%);stop-opacity:1;"/>
</linearGradient>
<linearGradient id="linear1" gradientUnits="userSpaceOnUse" x1="83.393127" y1="43" x2="83.393127" y2="129" gradientTransform="matrix(0.372093,0,0,0.372093,0,0)">
<stop offset="0" style="stop-color:rgb(91.764706%,93.333334%,51.372552%);stop-opacity:1;"/>
<stop offset="1" style="stop-color:rgb(99.215686%,77.254903%,60.000002%);stop-opacity:1;"/>
</linearGradient>
</defs>
<g id="surface26713132">
<path style="fill:none;stroke-width:5.375;stroke-linecap:butt;stroke-linejoin:miter;stroke:url(#linear0);stroke-miterlimit:10;" d="M 86 18.8125 C 48.889404 18.8125 18.8125 48.889404 18.8125 86 C 18.8125 123.110596 48.889404 153.1875 86 153.1875 C 123.110596 153.1875 153.1875 123.110596 153.1875 86 C 153.1875 48.889404 123.110596 18.8125 86 18.8125 Z M 86 18.8125 " transform="matrix(0.372093,0,0,0.372093,0,0)"/>
<path style=" stroke:none;fill-rule:nonzero;fill:url(#linear1);" d="M 13.125 36 C 12.164062 28.03125 21.976562 18.0625 30.472656 16 C 30.472656 16 27 18.449219 27 20.523438 C 27 24.679688 28.972656 23.269531 28.972656 23.269531 C 28.972656 23.269531 29.011719 38.257812 29.011719 39.328125 C 29.011719 40.398438 29.996094 41 31.375 41 C 32.753906 41 36 39.25 36 39.25 C 36 39.25 36 27.347656 36 25.875 C 36 24.402344 34.355469 23.054688 33.5625 22.359375 C 35.683594 22.359375 36.648438 23.097656 36.648438 23.097656 C 36.648438 23.097656 39.40625 19.453125 46.570312 17.539062 C 45.480469 18.949219 42 23.226562 42 24.5 C 42 25.773438 42 38.261719 42 39 C 42 39.738281 42.847656 40 43.375 40 C 43.902344 40 46.277344 39.308594 49 36.25 C 49 37.179688 45.367188 43.367188 39.867188 46.996094 L 36.25 44 L 32.511719 48 C 32.511719 48 23.25 47.5 20 42 C 20.96875 42.144531 23 42.539062 23 41 C 23 39.460938 23 29.503906 23 28.5 C 23 27.496094 22.480469 27 21.625 27 C 20.769531 27 17.746094 27.683594 13.125 36 Z M 13.125 36 "/>
</g>
</svg>
