<?xml version="1.0" encoding="UTF-8"?>
<svg xmlns="http://www.w3.org/2000/svg" xmlns:xlink="http://www.w3.org/1999/xlink" viewBox="0 0 50 50" width="50px" height="50px">
<defs>
<linearGradient id="linear0" gradientUnits="userSpaceOnUse" x1="79.009811" y1="56.660561" x2="79.009811" y2="119.147629" gradientTransform="matrix(0.290698,0,0,0.290698,0,0)">
<stop offset="0" style="stop-color:rgb(91.764706%,93.333334%,51.372552%);stop-opacity:1;"/>
<stop offset="1" style="stop-color:rgb(99.215686%,77.254903%,60.000002%);stop-opacity:1;"/>
</linearGradient>
<linearGradient id="linear1" gradientUnits="userSpaceOnUse" x1="111.461372" y1="56.660561" x2="111.461372" y2="119.147629" gradientTransform="matrix(0.290698,0,0,0.290698,0,0)">
<stop offset="0" style="stop-color:rgb(91.764706%,93.333334%,51.372552%);stop-opacity:1;"/>
<stop offset="1" style="stop-color:rgb(99.215686%,77.254903%,60.000002%);stop-opacity:1;"/>
</linearGradient>
<linearGradient id="linear2" gradientUnits="userSpaceOnUse" x1="80.560501" y1="56.660561" x2="80.560501" y2="119.147629" gradientTransform="matrix(0.290698,0,0,0.290698,0,0)">
<stop offset="0" style="stop-color:rgb(91.764706%,93.333334%,51.372552%);stop-opacity:1;"/>
<stop offset="1" style="stop-color:rgb(99.215686%,77.254903%,60.000002%);stop-opacity:1;"/>
</linearGradient>
<linearGradient id="linear3" gradientUnits="userSpaceOnUse" x1="80.178879" y1="21.405939" x2="81.192062" y2="154.206055" gradientTransform="matrix(0.290698,0,0,0.290698,0,0)">
<stop offset="0" style="stop-color:rgb(85.09804%,87.843138%,12.941177%);stop-opacity:1;"/>
<stop offset="1" style="stop-color:rgb(98.431373%,52.941179%,16.862746%);stop-opacity:1;"/>
</linearGradient>
</defs>
<g id="surface26695798">
<path style=" stroke:none;fill-rule:nonzero;fill:url(#linear0);" d="M 25.78125 24.21875 L 30.238281 15.453125 L 21.8125 17 L 15.699219 24.21875 Z M 25.78125 24.21875 "/>
<path style=" stroke:none;fill-rule:nonzero;fill:url(#linear1);" d="M 33.175781 17.289062 L 28.90625 25.78125 L 33.746094 33.222656 L 35.898438 25.246094 Z M 33.175781 17.289062 "/>
<path style=" stroke:none;fill-rule:nonzero;fill:url(#linear2);" d="M 15.953125 27.34375 L 22.449219 33.734375 L 30.882812 35.019531 L 25.78125 27.34375 Z M 15.953125 27.34375 "/>
<path style=" stroke:none;fill-rule:nonzero;fill:url(#linear3);" d="M 37.078125 42.96875 C 36.988281 42.96875 36.894531 42.960938 36.800781 42.945312 L 23.171875 40.601562 C 22.640625 40.511719 22.1875 40.144531 21.984375 39.644531 L 20.816406 36.71875 L 16.863281 36.71875 C 16.460938 36.71875 16.078125 36.566406 15.785156 36.289062 L 5.953125 26.910156 C 5.339844 26.328125 5.308594 25.34375 5.882812 24.722656 L 15.257812 14.5625 C 15.554688 14.246094 15.972656 14.0625 16.40625 14.0625 L 20.035156 14.0625 L 21.203125 11.136719 C 21.390625 10.671875 21.796875 10.320312 22.285156 10.199219 L 35.109375 7.074219 C 35.878906 6.890625 36.695312 7.335938 36.957031 8.078125 L 41.320312 20.578125 C 41.453125 20.972656 41.433594 21.390625 41.253906 21.765625 L 39.269531 25.132812 L 41.15625 27.878906 C 41.386719 28.261719 41.457031 28.667969 41.371094 29.0625 L 38.601562 41.742188 C 38.449219 42.453125 37.804688 42.96875 37.078125 42.96875 Z M 37.074219 41.40625 L 37.078125 42.1875 L 37.074219 41.40625 C 37.078125 41.40625 37.078125 41.40625 37.074219 41.40625 Z M 22.578125 36.914062 L 23.4375 39.0625 L 37.074219 41.40625 L 39.84375 28.726562 L 38.660156 27 L 35.757812 37.75 L 28.007812 25.832031 L 34.769531 12.378906 L 38.53125 23.308594 L 39.875 21.03125 L 35.480469 8.59375 L 22.65625 11.71875 L 21.816406 13.820312 L 32.988281 11.773438 L 26.261719 25 L 10.945312 25 L 18.878906 15.625 L 16.40625 15.625 L 7.03125 25.78125 L 16.863281 35.15625 L 19.441406 35.15625 L 10.726562 26.5625 L 26.199219 26.5625 L 34.242188 38.664062 Z M 21.90625 35.230469 L 30.992188 36.597656 L 25.363281 28.125 L 14.535156 28.125 L 21.667969 35.15625 L 21.777344 35.207031 Z M 29.804688 25.730469 L 35.160156 33.964844 L 37.496094 25.308594 L 37.511719 25.183594 L 37.492188 25.078125 L 34.5 16.394531 Z M 14.316406 23.4375 L 25.300781 23.4375 L 30.164062 13.878906 L 20.980469 15.5625 Z M 14.316406 23.4375 "/>
</g>
</svg>
