<?xml version="1.0" encoding="UTF-8"?>
<svg xmlns="http://www.w3.org/2000/svg" xmlns:xlink="http://www.w3.org/1999/xlink" viewBox="0 0 60 60" width="60px" height="60px">
<defs>
<linearGradient id="linear0" gradientUnits="userSpaceOnUse" x1="137.0625" y1="38.882751" x2="137.0625" y2="127.56488" gradientTransform="matrix(0.348837,0,0,0.348837,0,0)">
<stop offset="0" style="stop-color:rgb(91.764706%,93.333334%,51.372552%);stop-opacity:1;"/>
<stop offset="1" style="stop-color:rgb(99.215686%,77.254903%,60.000002%);stop-opacity:1;"/>
</linearGradient>
<linearGradient id="linear1" gradientUnits="userSpaceOnUse" x1="86" y1="19.95738" x2="86" y2="149.876495" gradientTransform="matrix(0.348837,0,0,0.348837,0,0)">
<stop offset="0" style="stop-color:rgb(85.09804%,87.843138%,12.941177%);stop-opacity:1;"/>
<stop offset="1" style="stop-color:rgb(98.431373%,52.941179%,16.862746%);stop-opacity:1;"/>
</linearGradient>
</defs>
<g id="surface26730024">
<path style=" stroke:none;fill-rule:nonzero;fill:url(#linear0);" d="M 45 12.09375 L 50.0625 14.625 C 50.34375 14.8125 50.625 15.09375 50.625 15.46875 L 50.625 44.625 C 50.625 45 50.4375 45.28125 50.0625 45.46875 L 45 47.90625 Z M 45 12.09375 "/>
<path style=" stroke:none;fill-rule:nonzero;fill:url(#linear1);" d="M 51.5625 10.6875 L 41.625 5.90625 L 41.53125 5.90625 C 41.53125 5.90625 41.53125 5.90625 41.4375 5.90625 C 40.5 5.53125 39.375 5.8125 38.71875 6.5625 L 23.53125 23.25 L 14.15625 15.65625 C 13.03125 14.71875 11.53125 14.625 10.3125 15.375 L 6.75 17.53125 C 6.75 17.53125 6.75 17.53125 6.65625 17.625 C 6 18 5.53125 18.65625 5.53125 19.5 L 5.53125 40.59375 C 5.53125 41.34375 5.90625 42 6.46875 42.375 L 10.21875 44.625 C 10.78125 44.90625 11.34375 45.09375 11.90625 45.09375 C 12.65625 45.09375 13.40625 44.8125 14.0625 44.34375 L 23.34375 36.84375 L 38.625 53.53125 C 39.09375 54.09375 39.75 54.375 40.5 54.375 C 40.78125 54.375 41.0625 54.28125 41.4375 54.1875 L 51.46875 49.3125 C 53.15625 48.65625 54.28125 46.96875 54.28125 45.1875 L 54.28125 14.90625 C 54.375 13.03125 53.25 11.34375 51.5625 10.6875 Z M 11.25 17.0625 C 11.8125 16.78125 12.46875 16.78125 12.9375 17.25 L 22.21875 24.75 L 18.28125 29.0625 L 9.375 18.1875 Z M 16.96875 30.46875 L 14.0625 33.75 L 14.0625 26.90625 Z M 7.6875 40.78125 C 7.59375 40.78125 7.5 40.6875 7.5 40.59375 L 7.5 19.40625 C 7.5 19.21875 7.59375 19.21875 7.6875 19.21875 C 7.6875 19.21875 7.6875 19.21875 7.78125 19.21875 C 7.875 19.21875 7.875 19.21875 7.96875 19.3125 L 12.28125 24.5625 L 12.28125 35.71875 L 7.875 40.59375 C 7.78125 40.78125 7.78125 40.78125 7.6875 40.78125 Z M 12.9375 42.84375 C 12.46875 43.21875 11.8125 43.3125 11.25 42.9375 L 9.375 41.8125 L 40.21875 7.78125 C 40.5 7.5 40.78125 7.59375 40.875 7.59375 C 40.96875 7.59375 41.25 7.78125 41.25 8.15625 L 41.25 20.15625 Z M 41.25 37.5 L 31.96875 30 L 41.25 22.5 Z M 24.9375 35.625 L 30.46875 31.21875 L 41.25 39.9375 L 41.25 51.9375 C 41.25 52.3125 40.96875 52.40625 40.875 52.5 C 40.78125 52.5 40.5 52.59375 40.21875 52.3125 Z M 52.5 45.09375 C 52.5 46.21875 51.84375 47.15625 50.90625 47.53125 L 43.125 51.28125 L 43.125 8.71875 C 43.125 8.71875 50.8125 12.46875 50.90625 12.46875 C 51.84375 12.84375 52.5 13.78125 52.5 14.90625 Z M 52.5 45.09375 "/>
</g>
</svg>
